<mxfile host="Electron" modified="2024-05-23T23:08:32.871Z" agent="Mozilla/5.0 (X11; Linux x86_64) AppleWebKit/537.36 (KHTML, like Gecko) draw.io/24.2.5 Chrome/120.0.6099.109 Electron/28.1.0 Safari/537.36" etag="rjLScBKk4D2_dnP1WhTN" version="24.2.5" type="device">
  <diagram name="Page-1" id="9Iv-UQtD-xq8JRuRJEf-">
    <mxGraphModel dx="928" dy="938" grid="1" gridSize="10" guides="1" tooltips="1" connect="1" arrows="1" fold="1" page="1" pageScale="1" pageWidth="850" pageHeight="1100" math="0" shadow="0">
      <root>
        <mxCell id="0" />
        <mxCell id="1" parent="0" />
        <mxCell id="7ZX5x5_AebVST8QY3JoG-17" style="edgeStyle=orthogonalEdgeStyle;rounded=0;sketch=1;hachureGap=4;jiggle=2;curveFitting=1;orthogonalLoop=1;jettySize=auto;html=1;entryX=0.5;entryY=1;entryDx=0;entryDy=0;fontFamily=Architects Daughter;fontSource=https%3A%2F%2Ffonts.googleapis.com%2Fcss%3Ffamily%3DArchitects%2BDaughter;fillColor=#60a917;strokeColor=#2D7600;" edge="1" parent="1" source="7ZX5x5_AebVST8QY3JoG-1" target="7ZX5x5_AebVST8QY3JoG-16">
          <mxGeometry relative="1" as="geometry" />
        </mxCell>
        <mxCell id="7ZX5x5_AebVST8QY3JoG-22" style="edgeStyle=orthogonalEdgeStyle;rounded=0;sketch=1;hachureGap=4;jiggle=2;curveFitting=1;orthogonalLoop=1;jettySize=auto;html=1;entryX=0;entryY=0.5;entryDx=0;entryDy=0;fontFamily=Architects Daughter;fontSource=https%3A%2F%2Ffonts.googleapis.com%2Fcss%3Ffamily%3DArchitects%2BDaughter;fillColor=#e3c800;strokeColor=#B09500;" edge="1" parent="1" source="7ZX5x5_AebVST8QY3JoG-1" target="7ZX5x5_AebVST8QY3JoG-21">
          <mxGeometry relative="1" as="geometry">
            <Array as="points">
              <mxPoint x="60" y="500" />
              <mxPoint x="60" y="610" />
            </Array>
          </mxGeometry>
        </mxCell>
        <mxCell id="7ZX5x5_AebVST8QY3JoG-26" style="edgeStyle=orthogonalEdgeStyle;rounded=0;sketch=1;hachureGap=4;jiggle=2;curveFitting=1;orthogonalLoop=1;jettySize=auto;html=1;entryX=0;entryY=0.5;entryDx=0;entryDy=0;fontFamily=Architects Daughter;fontSource=https%3A%2F%2Ffonts.googleapis.com%2Fcss%3Ffamily%3DArchitects%2BDaughter;" edge="1" parent="1" source="7ZX5x5_AebVST8QY3JoG-1" target="7ZX5x5_AebVST8QY3JoG-25">
          <mxGeometry relative="1" as="geometry">
            <Array as="points">
              <mxPoint x="40" y="500" />
              <mxPoint x="40" y="690" />
            </Array>
          </mxGeometry>
        </mxCell>
        <mxCell id="7ZX5x5_AebVST8QY3JoG-1" value="owner" style="shape=umlActor;verticalLabelPosition=bottom;verticalAlign=top;html=1;outlineConnect=0;sketch=1;hachureGap=4;jiggle=2;curveFitting=1;fontFamily=Architects Daughter;fontSource=https%3A%2F%2Ffonts.googleapis.com%2Fcss%3Ffamily%3DArchitects%2BDaughter;" vertex="1" parent="1">
          <mxGeometry x="80" y="470" width="30" height="60" as="geometry" />
        </mxCell>
        <mxCell id="7ZX5x5_AebVST8QY3JoG-2" value="Nodesale" style="swimlane;whiteSpace=wrap;html=1;sketch=1;hachureGap=4;jiggle=2;curveFitting=1;fontFamily=Architects Daughter;fontSource=https%3A%2F%2Ffonts.googleapis.com%2Fcss%3Ffamily%3DArchitects%2BDaughter;fillColor=#e51400;fontColor=#ffffff;strokeColor=#B20000;" vertex="1" parent="1">
          <mxGeometry x="300" y="360" width="200" height="200" as="geometry" />
        </mxCell>
        <mxCell id="7ZX5x5_AebVST8QY3JoG-6" style="edgeStyle=orthogonalEdgeStyle;rounded=0;sketch=1;hachureGap=4;jiggle=2;curveFitting=1;orthogonalLoop=1;jettySize=auto;html=1;entryX=1;entryY=0.25;entryDx=0;entryDy=0;fontFamily=Architects Daughter;fontSource=https%3A%2F%2Ffonts.googleapis.com%2Fcss%3Ffamily%3DArchitects%2BDaughter;" edge="1" parent="1" source="7ZX5x5_AebVST8QY3JoG-3" target="7ZX5x5_AebVST8QY3JoG-4">
          <mxGeometry relative="1" as="geometry" />
        </mxCell>
        <mxCell id="7ZX5x5_AebVST8QY3JoG-8" style="edgeStyle=orthogonalEdgeStyle;rounded=0;sketch=1;hachureGap=4;jiggle=2;curveFitting=1;orthogonalLoop=1;jettySize=auto;html=1;entryX=1;entryY=0.75;entryDx=0;entryDy=0;fontFamily=Architects Daughter;fontSource=https%3A%2F%2Ffonts.googleapis.com%2Fcss%3Ffamily%3DArchitects%2BDaughter;" edge="1" parent="1" source="7ZX5x5_AebVST8QY3JoG-3" target="7ZX5x5_AebVST8QY3JoG-5">
          <mxGeometry relative="1" as="geometry" />
        </mxCell>
        <mxCell id="7ZX5x5_AebVST8QY3JoG-3" value="user" style="shape=umlActor;verticalLabelPosition=bottom;verticalAlign=top;html=1;outlineConnect=0;sketch=1;hachureGap=4;jiggle=2;curveFitting=1;fontFamily=Architects Daughter;fontSource=https%3A%2F%2Ffonts.googleapis.com%2Fcss%3Ffamily%3DArchitects%2BDaughter;" vertex="1" parent="1">
          <mxGeometry x="720" y="420" width="30" height="60" as="geometry" />
        </mxCell>
        <mxCell id="7ZX5x5_AebVST8QY3JoG-10" style="edgeStyle=orthogonalEdgeStyle;rounded=0;sketch=1;hachureGap=4;jiggle=2;curveFitting=1;orthogonalLoop=1;jettySize=auto;html=1;entryX=1;entryY=0.25;entryDx=0;entryDy=0;fontFamily=Architects Daughter;fontSource=https%3A%2F%2Ffonts.googleapis.com%2Fcss%3Ffamily%3DArchitects%2BDaughter;" edge="1" parent="1" source="7ZX5x5_AebVST8QY3JoG-4" target="7ZX5x5_AebVST8QY3JoG-2">
          <mxGeometry relative="1" as="geometry" />
        </mxCell>
        <mxCell id="7ZX5x5_AebVST8QY3JoG-4" value="buy" style="rounded=0;whiteSpace=wrap;html=1;sketch=1;hachureGap=4;jiggle=2;curveFitting=1;fontFamily=Architects Daughter;fontSource=https%3A%2F%2Ffonts.googleapis.com%2Fcss%3Ffamily%3DArchitects%2BDaughter;fillColor=none;" vertex="1" parent="1">
          <mxGeometry x="550" y="380" width="120" height="60" as="geometry" />
        </mxCell>
        <mxCell id="7ZX5x5_AebVST8QY3JoG-9" style="edgeStyle=orthogonalEdgeStyle;rounded=0;sketch=1;hachureGap=4;jiggle=2;curveFitting=1;orthogonalLoop=1;jettySize=auto;html=1;entryX=1;entryY=0.75;entryDx=0;entryDy=0;fontFamily=Architects Daughter;fontSource=https%3A%2F%2Ffonts.googleapis.com%2Fcss%3Ffamily%3DArchitects%2BDaughter;" edge="1" parent="1" source="7ZX5x5_AebVST8QY3JoG-5" target="7ZX5x5_AebVST8QY3JoG-2">
          <mxGeometry relative="1" as="geometry" />
        </mxCell>
        <mxCell id="7ZX5x5_AebVST8QY3JoG-5" value="whitelist buy" style="rounded=0;whiteSpace=wrap;html=1;sketch=1;hachureGap=4;jiggle=2;curveFitting=1;fontFamily=Architects Daughter;fontSource=https%3A%2F%2Ffonts.googleapis.com%2Fcss%3Ffamily%3DArchitects%2BDaughter;fillColor=none;" vertex="1" parent="1">
          <mxGeometry x="550" y="480" width="120" height="60" as="geometry" />
        </mxCell>
        <mxCell id="7ZX5x5_AebVST8QY3JoG-14" style="edgeStyle=orthogonalEdgeStyle;rounded=0;sketch=1;hachureGap=4;jiggle=2;curveFitting=1;orthogonalLoop=1;jettySize=auto;html=1;fontFamily=Architects Daughter;fontSource=https%3A%2F%2Ffonts.googleapis.com%2Fcss%3Ffamily%3DArchitects%2BDaughter;" edge="1" parent="1" source="7ZX5x5_AebVST8QY3JoG-11" target="7ZX5x5_AebVST8QY3JoG-12">
          <mxGeometry relative="1" as="geometry" />
        </mxCell>
        <mxCell id="7ZX5x5_AebVST8QY3JoG-11" value="manager" style="shape=umlActor;verticalLabelPosition=bottom;verticalAlign=top;html=1;outlineConnect=0;sketch=1;hachureGap=4;jiggle=2;curveFitting=1;fontFamily=Architects Daughter;fontSource=https%3A%2F%2Ffonts.googleapis.com%2Fcss%3Ffamily%3DArchitects%2BDaughter;" vertex="1" parent="1">
          <mxGeometry x="230" y="640" width="30" height="60" as="geometry" />
        </mxCell>
        <mxCell id="7ZX5x5_AebVST8QY3JoG-15" style="edgeStyle=orthogonalEdgeStyle;rounded=0;sketch=1;hachureGap=4;jiggle=2;curveFitting=1;orthogonalLoop=1;jettySize=auto;html=1;entryX=0.75;entryY=1;entryDx=0;entryDy=0;fontFamily=Architects Daughter;fontSource=https%3A%2F%2Ffonts.googleapis.com%2Fcss%3Ffamily%3DArchitects%2BDaughter;" edge="1" parent="1" source="7ZX5x5_AebVST8QY3JoG-12" target="7ZX5x5_AebVST8QY3JoG-2">
          <mxGeometry relative="1" as="geometry" />
        </mxCell>
        <mxCell id="7ZX5x5_AebVST8QY3JoG-12" value="create referral code" style="rounded=0;whiteSpace=wrap;html=1;sketch=1;hachureGap=4;jiggle=2;curveFitting=1;fontFamily=Architects Daughter;fontSource=https%3A%2F%2Ffonts.googleapis.com%2Fcss%3Ffamily%3DArchitects%2BDaughter;fillColor=none;" vertex="1" parent="1">
          <mxGeometry x="365" y="650" width="120" height="60" as="geometry" />
        </mxCell>
        <mxCell id="7ZX5x5_AebVST8QY3JoG-18" style="edgeStyle=orthogonalEdgeStyle;rounded=0;sketch=1;hachureGap=4;jiggle=2;curveFitting=1;orthogonalLoop=1;jettySize=auto;html=1;entryX=0;entryY=0.5;entryDx=0;entryDy=0;fontFamily=Architects Daughter;fontSource=https%3A%2F%2Ffonts.googleapis.com%2Fcss%3Ffamily%3DArchitects%2BDaughter;fillColor=#60a917;strokeColor=#2D7600;" edge="1" parent="1" source="7ZX5x5_AebVST8QY3JoG-16" target="7ZX5x5_AebVST8QY3JoG-2">
          <mxGeometry relative="1" as="geometry" />
        </mxCell>
        <mxCell id="7ZX5x5_AebVST8QY3JoG-16" value="withdraw" style="rounded=0;whiteSpace=wrap;html=1;sketch=1;hachureGap=4;jiggle=2;curveFitting=1;fontFamily=Architects Daughter;fontSource=https%3A%2F%2Ffonts.googleapis.com%2Fcss%3Ffamily%3DArchitects%2BDaughter;fillColor=none;" vertex="1" parent="1">
          <mxGeometry x="150" y="420" width="120" height="60" as="geometry" />
        </mxCell>
        <mxCell id="7ZX5x5_AebVST8QY3JoG-19" style="edgeStyle=orthogonalEdgeStyle;rounded=0;sketch=1;hachureGap=4;jiggle=2;curveFitting=1;orthogonalLoop=1;jettySize=auto;html=1;entryX=0.5;entryY=0;entryDx=0;entryDy=0;entryPerimeter=0;fontFamily=Architects Daughter;fontSource=https%3A%2F%2Ffonts.googleapis.com%2Fcss%3Ffamily%3DArchitects%2BDaughter;fillColor=#60a917;strokeColor=#2D7600;" edge="1" parent="1" source="7ZX5x5_AebVST8QY3JoG-2" target="7ZX5x5_AebVST8QY3JoG-1">
          <mxGeometry relative="1" as="geometry">
            <Array as="points">
              <mxPoint x="205" y="400" />
              <mxPoint x="205" y="370" />
              <mxPoint x="95" y="370" />
            </Array>
          </mxGeometry>
        </mxCell>
        <mxCell id="7ZX5x5_AebVST8QY3JoG-20" value="transfer collected tokens" style="text;html=1;align=center;verticalAlign=middle;whiteSpace=wrap;rounded=0;fontFamily=Architects Daughter;fontSource=https%3A%2F%2Ffonts.googleapis.com%2Fcss%3Ffamily%3DArchitects%2BDaughter;" vertex="1" parent="1">
          <mxGeometry x="210" y="360" width="60" height="30" as="geometry" />
        </mxCell>
        <mxCell id="7ZX5x5_AebVST8QY3JoG-23" style="edgeStyle=orthogonalEdgeStyle;rounded=0;sketch=1;hachureGap=4;jiggle=2;curveFitting=1;orthogonalLoop=1;jettySize=auto;html=1;entryX=0;entryY=0.75;entryDx=0;entryDy=0;fontFamily=Architects Daughter;fontSource=https%3A%2F%2Ffonts.googleapis.com%2Fcss%3Ffamily%3DArchitects%2BDaughter;fillColor=#e3c800;strokeColor=#B09500;" edge="1" parent="1" source="7ZX5x5_AebVST8QY3JoG-21" target="7ZX5x5_AebVST8QY3JoG-2">
          <mxGeometry relative="1" as="geometry" />
        </mxCell>
        <mxCell id="7ZX5x5_AebVST8QY3JoG-21" value="update manager" style="rounded=0;whiteSpace=wrap;html=1;sketch=1;hachureGap=4;jiggle=2;curveFitting=1;fontFamily=Architects Daughter;fontSource=https%3A%2F%2Ffonts.googleapis.com%2Fcss%3Ffamily%3DArchitects%2BDaughter;fillColor=none;" vertex="1" parent="1">
          <mxGeometry x="80" y="580" width="120" height="60" as="geometry" />
        </mxCell>
        <mxCell id="7ZX5x5_AebVST8QY3JoG-24" style="edgeStyle=orthogonalEdgeStyle;rounded=0;sketch=1;hachureGap=4;jiggle=2;curveFitting=1;orthogonalLoop=1;jettySize=auto;html=1;entryX=0.5;entryY=0;entryDx=0;entryDy=0;entryPerimeter=0;fontFamily=Architects Daughter;fontSource=https%3A%2F%2Ffonts.googleapis.com%2Fcss%3Ffamily%3DArchitects%2BDaughter;fillColor=#e3c800;strokeColor=#B09500;" edge="1" parent="1" source="7ZX5x5_AebVST8QY3JoG-2" target="7ZX5x5_AebVST8QY3JoG-11">
          <mxGeometry relative="1" as="geometry">
            <Array as="points">
              <mxPoint x="330" y="640" />
            </Array>
          </mxGeometry>
        </mxCell>
        <mxCell id="7ZX5x5_AebVST8QY3JoG-27" style="edgeStyle=orthogonalEdgeStyle;rounded=0;sketch=1;hachureGap=4;jiggle=2;curveFitting=1;orthogonalLoop=1;jettySize=auto;html=1;entryX=1;entryY=1;entryDx=0;entryDy=0;fontFamily=Architects Daughter;fontSource=https%3A%2F%2Ffonts.googleapis.com%2Fcss%3Ffamily%3DArchitects%2BDaughter;" edge="1" parent="1" source="7ZX5x5_AebVST8QY3JoG-25" target="7ZX5x5_AebVST8QY3JoG-2">
          <mxGeometry relative="1" as="geometry">
            <Array as="points">
              <mxPoint x="140" y="740" />
              <mxPoint x="540" y="740" />
              <mxPoint x="540" y="560" />
            </Array>
          </mxGeometry>
        </mxCell>
        <mxCell id="7ZX5x5_AebVST8QY3JoG-25" value="pause/unpause protocol" style="rounded=0;whiteSpace=wrap;html=1;sketch=1;hachureGap=4;jiggle=2;curveFitting=1;fontFamily=Architects Daughter;fontSource=https%3A%2F%2Ffonts.googleapis.com%2Fcss%3Ffamily%3DArchitects%2BDaughter;fillColor=none;" vertex="1" parent="1">
          <mxGeometry x="80" y="660" width="120" height="60" as="geometry" />
        </mxCell>
      </root>
    </mxGraphModel>
  </diagram>
</mxfile>
